<mxfile host="Electron" modified="2024-07-24T20:52:45.704Z" agent="Mozilla/5.0 (Windows NT 10.0; Win64; x64) AppleWebKit/537.36 (KHTML, like Gecko) draw.io/24.2.5 Chrome/120.0.6099.109 Electron/28.1.0 Safari/537.36" etag="HXRoZpLrm8KgQXYVGsA6" version="24.2.5" type="device">
  <diagram id="C5RBs43oDa-KdzZeNtuy" name="Page-1">
    <mxGraphModel dx="2100" dy="2427" grid="1" gridSize="10" guides="1" tooltips="1" connect="1" arrows="1" fold="1" page="1" pageScale="1" pageWidth="827" pageHeight="1169" math="0" shadow="0">
      <root>
        <mxCell id="WIyWlLk6GJQsqaUBKTNV-0" />
        <mxCell id="WIyWlLk6GJQsqaUBKTNV-1" parent="WIyWlLk6GJQsqaUBKTNV-0" />
        <mxCell id="C0KYWf5MFjcVJt7XxlhM-91" style="edgeStyle=orthogonalEdgeStyle;rounded=0;orthogonalLoop=1;jettySize=auto;html=1;shape=flexArrow;noEdgeStyle=1;orthogonal=1;fillColor=#e1d5e7;strokeColor=#9673a6;" edge="1" parent="WIyWlLk6GJQsqaUBKTNV-1" source="C0KYWf5MFjcVJt7XxlhM-1" target="C0KYWf5MFjcVJt7XxlhM-3">
          <mxGeometry relative="1" as="geometry">
            <Array as="points">
              <mxPoint x="673" y="30" />
              <mxPoint x="1254.2857142857142" y="148" />
            </Array>
          </mxGeometry>
        </mxCell>
        <mxCell id="C0KYWf5MFjcVJt7XxlhM-90" style="edgeStyle=orthogonalEdgeStyle;rounded=0;orthogonalLoop=1;jettySize=auto;html=1;shape=flexArrow;noEdgeStyle=1;orthogonal=1;fillColor=#e1d5e7;strokeColor=#9673a6;" edge="1" parent="WIyWlLk6GJQsqaUBKTNV-1" source="C0KYWf5MFjcVJt7XxlhM-4" target="C0KYWf5MFjcVJt7XxlhM-3">
          <mxGeometry relative="1" as="geometry">
            <Array as="points">
              <mxPoint x="854" y="30" />
              <mxPoint x="1272.857142857143" y="146" />
            </Array>
          </mxGeometry>
        </mxCell>
        <mxCell id="C0KYWf5MFjcVJt7XxlhM-88" style="edgeStyle=orthogonalEdgeStyle;rounded=0;orthogonalLoop=1;jettySize=auto;html=1;shape=flexArrow;noEdgeStyle=1;orthogonal=1;fillColor=#e1d5e7;strokeColor=#9673a6;" edge="1" parent="WIyWlLk6GJQsqaUBKTNV-1" source="C0KYWf5MFjcVJt7XxlhM-5" target="C0KYWf5MFjcVJt7XxlhM-3">
          <mxGeometry relative="1" as="geometry">
            <Array as="points">
              <mxPoint x="1053" y="30" />
              <mxPoint x="1291.4285714285716" y="144" />
            </Array>
          </mxGeometry>
        </mxCell>
        <mxCell id="C0KYWf5MFjcVJt7XxlhM-94" style="edgeStyle=orthogonalEdgeStyle;rounded=0;orthogonalLoop=1;jettySize=auto;html=1;shape=flexArrow;noEdgeStyle=1;orthogonal=1;fillColor=#e1d5e7;strokeColor=#9673a6;" edge="1" parent="WIyWlLk6GJQsqaUBKTNV-1" source="C0KYWf5MFjcVJt7XxlhM-7" target="C0KYWf5MFjcVJt7XxlhM-3">
          <mxGeometry relative="1" as="geometry">
            <Array as="points">
              <mxPoint x="1388" y="72" />
              <mxPoint x="1310.0000000000002" y="142" />
            </Array>
          </mxGeometry>
        </mxCell>
        <mxCell id="C0KYWf5MFjcVJt7XxlhM-93" style="edgeStyle=orthogonalEdgeStyle;rounded=0;orthogonalLoop=1;jettySize=auto;html=1;shape=flexArrow;noEdgeStyle=1;orthogonal=1;fillColor=#e1d5e7;strokeColor=#9673a6;" edge="1" parent="WIyWlLk6GJQsqaUBKTNV-1" source="C0KYWf5MFjcVJt7XxlhM-8" target="C0KYWf5MFjcVJt7XxlhM-3">
          <mxGeometry relative="1" as="geometry">
            <Array as="points">
              <mxPoint x="1690" y="40" />
              <mxPoint x="1328.571428571429" y="144" />
            </Array>
          </mxGeometry>
        </mxCell>
        <mxCell id="C0KYWf5MFjcVJt7XxlhM-92" style="edgeStyle=orthogonalEdgeStyle;rounded=0;orthogonalLoop=1;jettySize=auto;html=1;shape=flexArrow;noEdgeStyle=1;orthogonal=1;fillColor=#e1d5e7;strokeColor=#9673a6;" edge="1" parent="WIyWlLk6GJQsqaUBKTNV-1" source="C0KYWf5MFjcVJt7XxlhM-9" target="C0KYWf5MFjcVJt7XxlhM-3">
          <mxGeometry relative="1" as="geometry">
            <Array as="points">
              <mxPoint x="1836" y="30" />
              <mxPoint x="1347.1428571428576" y="146" />
            </Array>
          </mxGeometry>
        </mxCell>
        <mxCell id="C0KYWf5MFjcVJt7XxlhM-95" style="edgeStyle=orthogonalEdgeStyle;rounded=0;orthogonalLoop=1;jettySize=auto;html=1;shape=flexArrow;noEdgeStyle=1;orthogonal=1;fillColor=#e1d5e7;strokeColor=#9673a6;" edge="1" parent="WIyWlLk6GJQsqaUBKTNV-1" source="C0KYWf5MFjcVJt7XxlhM-10" target="C0KYWf5MFjcVJt7XxlhM-3">
          <mxGeometry relative="1" as="geometry">
            <Array as="points">
              <mxPoint x="2001" y="30" />
              <mxPoint x="1365.7142857142862" y="148" />
            </Array>
          </mxGeometry>
        </mxCell>
        <mxCell id="avPxuaekG5Cl0MjWcBpi-0" value="BasicConfiguration" style="rounded=0;whiteSpace=wrap;html=1;fillColor=#fff2cc;container=0;strokeColor=#d6b656;" parent="WIyWlLk6GJQsqaUBKTNV-1" vertex="1">
          <mxGeometry x="1611.875" y="320" width="140" height="60" as="geometry" />
        </mxCell>
        <mxCell id="C0KYWf5MFjcVJt7XxlhM-0" value="SwaggerConfig" style="rounded=0;whiteSpace=wrap;html=1;fillColor=#D4E1F5;container=0;" vertex="1" parent="WIyWlLk6GJQsqaUBKTNV-1">
          <mxGeometry x="2210" y="480" width="140" height="60" as="geometry" />
        </mxCell>
        <mxCell id="C0KYWf5MFjcVJt7XxlhM-38" style="edgeStyle=orthogonalEdgeStyle;rounded=0;orthogonalLoop=1;jettySize=auto;html=1;noEdgeStyle=1;orthogonal=1;fillColor=#fff2cc;strokeColor=#d6b656;" edge="1" parent="WIyWlLk6GJQsqaUBKTNV-1" source="C0KYWf5MFjcVJt7XxlhM-1" target="avPxuaekG5Cl0MjWcBpi-0">
          <mxGeometry relative="1" as="geometry">
            <Array as="points">
              <mxPoint x="630" y="74" />
              <mxPoint x="630" y="110" />
              <mxPoint x="630" y="270" />
              <mxPoint x="1624.0972222222222" y="308" />
            </Array>
          </mxGeometry>
        </mxCell>
        <mxCell id="C0KYWf5MFjcVJt7XxlhM-39" style="edgeStyle=orthogonalEdgeStyle;rounded=0;orthogonalLoop=1;jettySize=auto;html=1;noEdgeStyle=1;orthogonal=1;" edge="1" parent="WIyWlLk6GJQsqaUBKTNV-1" source="C0KYWf5MFjcVJt7XxlhM-1" target="C0KYWf5MFjcVJt7XxlhM-19">
          <mxGeometry relative="1" as="geometry">
            <Array as="points">
              <mxPoint x="586.6666666666666" y="72" />
              <mxPoint x="600" y="110" />
              <mxPoint x="600" y="270" />
              <mxPoint x="1425" y="308" />
            </Array>
          </mxGeometry>
        </mxCell>
        <mxCell id="C0KYWf5MFjcVJt7XxlhM-1" value="UtilityController" style="rounded=0;whiteSpace=wrap;html=1;fillColor=#D4E1F5;container=0;" vertex="1" parent="WIyWlLk6GJQsqaUBKTNV-1">
          <mxGeometry x="560" y="-80" width="140" height="60" as="geometry" />
        </mxCell>
        <mxCell id="C0KYWf5MFjcVJt7XxlhM-40" style="edgeStyle=orthogonalEdgeStyle;rounded=0;orthogonalLoop=1;jettySize=auto;html=1;noEdgeStyle=1;orthogonal=1;fillColor=#fff2cc;strokeColor=#d6b656;" edge="1" parent="WIyWlLk6GJQsqaUBKTNV-1" source="C0KYWf5MFjcVJt7XxlhM-3" target="avPxuaekG5Cl0MjWcBpi-0">
          <mxGeometry relative="1" as="geometry">
            <Array as="points">
              <mxPoint x="1353.3333333333326" y="234" />
              <mxPoint x="1667.4305555555552" y="302" />
            </Array>
          </mxGeometry>
        </mxCell>
        <mxCell id="C0KYWf5MFjcVJt7XxlhM-41" style="edgeStyle=orthogonalEdgeStyle;rounded=0;orthogonalLoop=1;jettySize=auto;html=1;noEdgeStyle=1;orthogonal=1;" edge="1" parent="WIyWlLk6GJQsqaUBKTNV-1" source="C0KYWf5MFjcVJt7XxlhM-3" target="C0KYWf5MFjcVJt7XxlhM-19">
          <mxGeometry relative="1" as="geometry">
            <Array as="points">
              <mxPoint x="1324.444444444444" y="238" />
              <mxPoint x="1473.75" y="302" />
            </Array>
          </mxGeometry>
        </mxCell>
        <mxCell id="C0KYWf5MFjcVJt7XxlhM-42" style="edgeStyle=orthogonalEdgeStyle;rounded=0;orthogonalLoop=1;jettySize=auto;html=1;noEdgeStyle=1;orthogonal=1;" edge="1" parent="WIyWlLk6GJQsqaUBKTNV-1" source="C0KYWf5MFjcVJt7XxlhM-3" target="C0KYWf5MFjcVJt7XxlhM-23">
          <mxGeometry relative="1" as="geometry">
            <Array as="points">
              <mxPoint x="1367.777777777777" y="232" />
              <mxPoint x="1833.3035714285716" y="304" />
            </Array>
          </mxGeometry>
        </mxCell>
        <mxCell id="C0KYWf5MFjcVJt7XxlhM-43" style="edgeStyle=orthogonalEdgeStyle;rounded=0;orthogonalLoop=1;jettySize=auto;html=1;noEdgeStyle=1;orthogonal=1;" edge="1" parent="WIyWlLk6GJQsqaUBKTNV-1" source="C0KYWf5MFjcVJt7XxlhM-3" target="C0KYWf5MFjcVJt7XxlhM-24">
          <mxGeometry relative="1" as="geometry">
            <Array as="points">
              <mxPoint x="1252.2222222222222" y="232" />
              <mxPoint x="1051.875" y="308" />
            </Array>
          </mxGeometry>
        </mxCell>
        <mxCell id="C0KYWf5MFjcVJt7XxlhM-44" style="edgeStyle=orthogonalEdgeStyle;rounded=0;orthogonalLoop=1;jettySize=auto;html=1;noEdgeStyle=1;orthogonal=1;" edge="1" parent="WIyWlLk6GJQsqaUBKTNV-1" source="C0KYWf5MFjcVJt7XxlhM-3" target="C0KYWf5MFjcVJt7XxlhM-31">
          <mxGeometry relative="1" as="geometry">
            <Array as="points">
              <mxPoint x="1266.6666666666665" y="234" />
              <mxPoint x="1221.875" y="308" />
            </Array>
          </mxGeometry>
        </mxCell>
        <mxCell id="C0KYWf5MFjcVJt7XxlhM-45" style="edgeStyle=orthogonalEdgeStyle;rounded=0;orthogonalLoop=1;jettySize=auto;html=1;noEdgeStyle=1;orthogonal=1;" edge="1" parent="WIyWlLk6GJQsqaUBKTNV-1" source="C0KYWf5MFjcVJt7XxlhM-3" target="C0KYWf5MFjcVJt7XxlhM-32">
          <mxGeometry relative="1" as="geometry">
            <Array as="points">
              <mxPoint x="1281.1111111111109" y="236" />
              <mxPoint x="1321.875" y="270" />
              <mxPoint x="1321.875" y="430" />
              <mxPoint x="1227.875" y="466" />
            </Array>
          </mxGeometry>
        </mxCell>
        <mxCell id="C0KYWf5MFjcVJt7XxlhM-46" style="edgeStyle=orthogonalEdgeStyle;rounded=0;orthogonalLoop=1;jettySize=auto;html=1;noEdgeStyle=1;orthogonal=1;" edge="1" parent="WIyWlLk6GJQsqaUBKTNV-1" source="C0KYWf5MFjcVJt7XxlhM-3" target="C0KYWf5MFjcVJt7XxlhM-34">
          <mxGeometry relative="1" as="geometry">
            <Array as="points">
              <mxPoint x="1309.9999999999995" y="240" />
              <mxPoint x="1381.875" y="270" />
              <mxPoint x="1381.875" y="430" />
              <mxPoint x="1524.5416666666667" y="468" />
            </Array>
          </mxGeometry>
        </mxCell>
        <mxCell id="C0KYWf5MFjcVJt7XxlhM-47" style="edgeStyle=orthogonalEdgeStyle;rounded=0;orthogonalLoop=1;jettySize=auto;html=1;noEdgeStyle=1;orthogonal=1;" edge="1" parent="WIyWlLk6GJQsqaUBKTNV-1" source="C0KYWf5MFjcVJt7XxlhM-3" target="C0KYWf5MFjcVJt7XxlhM-35">
          <mxGeometry relative="1" as="geometry">
            <Array as="points">
              <mxPoint x="1295.5555555555552" y="238" />
              <mxPoint x="1351.875" y="270" />
              <mxPoint x="1351.875" y="430" />
              <mxPoint x="1381.625" y="466" />
            </Array>
          </mxGeometry>
        </mxCell>
        <mxCell id="C0KYWf5MFjcVJt7XxlhM-48" style="edgeStyle=orthogonalEdgeStyle;rounded=0;orthogonalLoop=1;jettySize=auto;html=1;noEdgeStyle=1;orthogonal=1;" edge="1" parent="WIyWlLk6GJQsqaUBKTNV-1" source="C0KYWf5MFjcVJt7XxlhM-3" target="C0KYWf5MFjcVJt7XxlhM-36">
          <mxGeometry relative="1" as="geometry">
            <Array as="points">
              <mxPoint x="1338.8888888888882" y="236" />
              <mxPoint x="1581.875" y="270" />
              <mxPoint x="1581.875" y="430" />
              <mxPoint x="1737.875" y="466" />
            </Array>
          </mxGeometry>
        </mxCell>
        <mxCell id="C0KYWf5MFjcVJt7XxlhM-3" value="WydotTimBaseController" style="rounded=0;whiteSpace=wrap;html=1;fillColor=#D4E1F5;container=0;" vertex="1" parent="WIyWlLk6GJQsqaUBKTNV-1">
          <mxGeometry x="1240" y="160" width="140" height="60" as="geometry" />
        </mxCell>
        <mxCell id="C0KYWf5MFjcVJt7XxlhM-49" style="edgeStyle=orthogonalEdgeStyle;rounded=0;orthogonalLoop=1;jettySize=auto;html=1;noEdgeStyle=1;orthogonal=1;fillColor=#fff2cc;strokeColor=#d6b656;" edge="1" parent="WIyWlLk6GJQsqaUBKTNV-1" source="C0KYWf5MFjcVJt7XxlhM-4" target="avPxuaekG5Cl0MjWcBpi-0">
          <mxGeometry relative="1" as="geometry">
            <Array as="points">
              <mxPoint x="789.1666666666666" y="76" />
              <mxPoint x="720" y="110" />
              <mxPoint x="720" y="270" />
              <mxPoint x="1638.5416666666665" y="306" />
            </Array>
          </mxGeometry>
        </mxCell>
        <mxCell id="C0KYWf5MFjcVJt7XxlhM-50" style="edgeStyle=orthogonalEdgeStyle;rounded=0;orthogonalLoop=1;jettySize=auto;html=1;noEdgeStyle=1;orthogonal=1;" edge="1" parent="WIyWlLk6GJQsqaUBKTNV-1" source="C0KYWf5MFjcVJt7XxlhM-4" target="C0KYWf5MFjcVJt7XxlhM-19">
          <mxGeometry relative="1" as="geometry">
            <Array as="points">
              <mxPoint x="767.5" y="74" />
              <mxPoint x="690" y="110" />
              <mxPoint x="690" y="270" />
              <mxPoint x="1441.25" y="306" />
            </Array>
          </mxGeometry>
        </mxCell>
        <mxCell id="C0KYWf5MFjcVJt7XxlhM-51" style="edgeStyle=orthogonalEdgeStyle;rounded=0;orthogonalLoop=1;jettySize=auto;html=1;noEdgeStyle=1;orthogonal=1;" edge="1" parent="WIyWlLk6GJQsqaUBKTNV-1" source="C0KYWf5MFjcVJt7XxlhM-4" target="C0KYWf5MFjcVJt7XxlhM-23">
          <mxGeometry relative="1" as="geometry">
            <Array as="points">
              <mxPoint x="810.8333333333333" y="76" />
              <mxPoint x="750" y="110" />
              <mxPoint x="750" y="270" />
              <mxPoint x="1796.1607142857142" y="308" />
            </Array>
          </mxGeometry>
        </mxCell>
        <mxCell id="C0KYWf5MFjcVJt7XxlhM-52" style="edgeStyle=orthogonalEdgeStyle;rounded=0;orthogonalLoop=1;jettySize=auto;html=1;noEdgeStyle=1;orthogonal=1;" edge="1" parent="WIyWlLk6GJQsqaUBKTNV-1" source="C0KYWf5MFjcVJt7XxlhM-4" target="C0KYWf5MFjcVJt7XxlhM-28">
          <mxGeometry relative="1" as="geometry">
            <Array as="points">
              <mxPoint x="832.4999999999999" y="74" />
              <mxPoint x="1107.5" y="148" />
            </Array>
          </mxGeometry>
        </mxCell>
        <mxCell id="C0KYWf5MFjcVJt7XxlhM-53" style="edgeStyle=orthogonalEdgeStyle;rounded=0;orthogonalLoop=1;jettySize=auto;html=1;noEdgeStyle=1;orthogonal=1;" edge="1" parent="WIyWlLk6GJQsqaUBKTNV-1" source="C0KYWf5MFjcVJt7XxlhM-4" target="C0KYWf5MFjcVJt7XxlhM-35">
          <mxGeometry relative="1" as="geometry">
            <Array as="points">
              <mxPoint x="745.8333333333334" y="72" />
              <mxPoint x="660" y="110" />
              <mxPoint x="660" y="270" />
              <mxPoint x="660" y="270" />
              <mxPoint x="660" y="430" />
              <mxPoint x="1349.125" y="468" />
            </Array>
          </mxGeometry>
        </mxCell>
        <mxCell id="C0KYWf5MFjcVJt7XxlhM-4" value="WydotTimCcController" style="rounded=0;whiteSpace=wrap;html=1;fillColor=#D4E1F5;container=0;" vertex="1" parent="WIyWlLk6GJQsqaUBKTNV-1">
          <mxGeometry x="730" y="-80" width="140" height="60" as="geometry" />
        </mxCell>
        <mxCell id="C0KYWf5MFjcVJt7XxlhM-54" style="edgeStyle=orthogonalEdgeStyle;rounded=0;orthogonalLoop=1;jettySize=auto;html=1;noEdgeStyle=1;orthogonal=1;fillColor=#fff2cc;strokeColor=#d6b656;" edge="1" parent="WIyWlLk6GJQsqaUBKTNV-1" source="C0KYWf5MFjcVJt7XxlhM-5" target="avPxuaekG5Cl0MjWcBpi-0">
          <mxGeometry relative="1" as="geometry">
            <Array as="points">
              <mxPoint x="945.3125" y="74" />
              <mxPoint x="810" y="110" />
              <mxPoint x="810" y="270" />
              <mxPoint x="1652.9861111111109" y="304" />
            </Array>
          </mxGeometry>
        </mxCell>
        <mxCell id="C0KYWf5MFjcVJt7XxlhM-55" style="edgeStyle=orthogonalEdgeStyle;rounded=0;orthogonalLoop=1;jettySize=auto;html=1;noEdgeStyle=1;orthogonal=1;" edge="1" parent="WIyWlLk6GJQsqaUBKTNV-1" source="C0KYWf5MFjcVJt7XxlhM-5" target="C0KYWf5MFjcVJt7XxlhM-19">
          <mxGeometry relative="1" as="geometry">
            <Array as="points">
              <mxPoint x="918.4375" y="72" />
              <mxPoint x="780" y="110" />
              <mxPoint x="780" y="270" />
              <mxPoint x="1457.5" y="304" />
            </Array>
          </mxGeometry>
        </mxCell>
        <mxCell id="C0KYWf5MFjcVJt7XxlhM-56" style="edgeStyle=orthogonalEdgeStyle;rounded=0;orthogonalLoop=1;jettySize=auto;html=1;noEdgeStyle=1;orthogonal=1;" edge="1" parent="WIyWlLk6GJQsqaUBKTNV-1" source="C0KYWf5MFjcVJt7XxlhM-5" target="C0KYWf5MFjcVJt7XxlhM-23">
          <mxGeometry relative="1" as="geometry">
            <Array as="points">
              <mxPoint x="972.1875" y="76" />
              <mxPoint x="840" y="110" />
              <mxPoint x="840" y="270" />
              <mxPoint x="1814.732142857143" y="306" />
            </Array>
          </mxGeometry>
        </mxCell>
        <mxCell id="C0KYWf5MFjcVJt7XxlhM-57" style="edgeStyle=orthogonalEdgeStyle;rounded=0;orthogonalLoop=1;jettySize=auto;html=1;noEdgeStyle=1;orthogonal=1;" edge="1" parent="WIyWlLk6GJQsqaUBKTNV-1" source="C0KYWf5MFjcVJt7XxlhM-5" target="C0KYWf5MFjcVJt7XxlhM-26">
          <mxGeometry relative="1" as="geometry">
            <Array as="points">
              <mxPoint x="999.0625" y="76" />
              <mxPoint x="940" y="148" />
            </Array>
          </mxGeometry>
        </mxCell>
        <mxCell id="C0KYWf5MFjcVJt7XxlhM-5" value="WydotTimIncidentController" style="rounded=0;whiteSpace=wrap;html=1;fillColor=#D4E1F5;container=0;" vertex="1" parent="WIyWlLk6GJQsqaUBKTNV-1">
          <mxGeometry x="900" y="-80" width="171.25" height="60" as="geometry" />
        </mxCell>
        <mxCell id="C0KYWf5MFjcVJt7XxlhM-59" style="edgeStyle=orthogonalEdgeStyle;rounded=0;orthogonalLoop=1;jettySize=auto;html=1;noEdgeStyle=1;orthogonal=1;fillColor=#fff2cc;strokeColor=#d6b656;" edge="1" parent="WIyWlLk6GJQsqaUBKTNV-1" source="C0KYWf5MFjcVJt7XxlhM-7" target="avPxuaekG5Cl0MjWcBpi-0">
          <mxGeometry relative="1" as="geometry">
            <Array as="points">
              <mxPoint x="1441.5625" y="76" />
              <mxPoint x="1440" y="110" />
              <mxPoint x="1440" y="270" />
              <mxPoint x="1681.8749999999995" y="300" />
            </Array>
          </mxGeometry>
        </mxCell>
        <mxCell id="C0KYWf5MFjcVJt7XxlhM-60" style="edgeStyle=orthogonalEdgeStyle;rounded=0;orthogonalLoop=1;jettySize=auto;html=1;noEdgeStyle=1;orthogonal=1;" edge="1" parent="WIyWlLk6GJQsqaUBKTNV-1" source="C0KYWf5MFjcVJt7XxlhM-7" target="C0KYWf5MFjcVJt7XxlhM-19">
          <mxGeometry relative="1" as="geometry">
            <Array as="points">
              <mxPoint x="1414.6875" y="74" />
              <mxPoint x="1410" y="110" />
              <mxPoint x="1410" y="270" />
              <mxPoint x="1490" y="302" />
            </Array>
          </mxGeometry>
        </mxCell>
        <mxCell id="C0KYWf5MFjcVJt7XxlhM-61" style="edgeStyle=orthogonalEdgeStyle;rounded=0;orthogonalLoop=1;jettySize=auto;html=1;noEdgeStyle=1;orthogonal=1;" edge="1" parent="WIyWlLk6GJQsqaUBKTNV-1" source="C0KYWf5MFjcVJt7XxlhM-7" target="C0KYWf5MFjcVJt7XxlhM-23">
          <mxGeometry relative="1" as="geometry">
            <Array as="points">
              <mxPoint x="1468.4375" y="76" />
              <mxPoint x="1470" y="110" />
              <mxPoint x="1470" y="270" />
              <mxPoint x="1851.8750000000002" y="302" />
            </Array>
          </mxGeometry>
        </mxCell>
        <mxCell id="C0KYWf5MFjcVJt7XxlhM-62" style="edgeStyle=orthogonalEdgeStyle;rounded=0;orthogonalLoop=1;jettySize=auto;html=1;noEdgeStyle=1;orthogonal=1;" edge="1" parent="WIyWlLk6GJQsqaUBKTNV-1" source="C0KYWf5MFjcVJt7XxlhM-7" target="C0KYWf5MFjcVJt7XxlhM-27">
          <mxGeometry relative="1" as="geometry">
            <Array as="points">
              <mxPoint x="1495.3125" y="74" />
              <mxPoint x="1570" y="148" />
            </Array>
          </mxGeometry>
        </mxCell>
        <mxCell id="C0KYWf5MFjcVJt7XxlhM-63" style="edgeStyle=orthogonalEdgeStyle;rounded=0;orthogonalLoop=1;jettySize=auto;html=1;noEdgeStyle=1;orthogonal=1;" edge="1" parent="WIyWlLk6GJQsqaUBKTNV-1" source="C0KYWf5MFjcVJt7XxlhM-7" target="C0KYWf5MFjcVJt7XxlhM-34">
          <mxGeometry relative="1" as="geometry">
            <Array as="points">
              <mxPoint x="1522.1875" y="72" />
              <mxPoint x="1670" y="110" />
              <mxPoint x="1670" y="270" />
              <mxPoint x="1951.875" y="270" />
              <mxPoint x="1951.875" y="430" />
              <mxPoint x="1611.2083333333333" y="468" />
            </Array>
          </mxGeometry>
        </mxCell>
        <mxCell id="C0KYWf5MFjcVJt7XxlhM-7" value="WydotTimParkingController" style="rounded=0;whiteSpace=wrap;html=1;fillColor=#D4E1F5;container=0;" vertex="1" parent="WIyWlLk6GJQsqaUBKTNV-1">
          <mxGeometry x="1369.375" y="-80" width="171.25" height="60" as="geometry" />
        </mxCell>
        <mxCell id="C0KYWf5MFjcVJt7XxlhM-64" style="edgeStyle=orthogonalEdgeStyle;rounded=0;orthogonalLoop=1;jettySize=auto;html=1;noEdgeStyle=1;orthogonal=1;fillColor=#fff2cc;strokeColor=#d6b656;" edge="1" parent="WIyWlLk6GJQsqaUBKTNV-1" source="C0KYWf5MFjcVJt7XxlhM-8" target="avPxuaekG5Cl0MjWcBpi-0">
          <mxGeometry relative="1" as="geometry">
            <Array as="points">
              <mxPoint x="1725.8333333333335" y="76" />
              <mxPoint x="1730" y="110" />
              <mxPoint x="1730" y="270" />
              <mxPoint x="1696.319444444444" y="302" />
            </Array>
          </mxGeometry>
        </mxCell>
        <mxCell id="C0KYWf5MFjcVJt7XxlhM-65" style="edgeStyle=orthogonalEdgeStyle;rounded=0;orthogonalLoop=1;jettySize=auto;html=1;noEdgeStyle=1;orthogonal=1;" edge="1" parent="WIyWlLk6GJQsqaUBKTNV-1" source="C0KYWf5MFjcVJt7XxlhM-8" target="C0KYWf5MFjcVJt7XxlhM-19">
          <mxGeometry relative="1" as="geometry">
            <Array as="points">
              <mxPoint x="1704.1666666666667" y="76" />
              <mxPoint x="1700" y="110" />
              <mxPoint x="1700" y="270" />
              <mxPoint x="1506.25" y="304" />
            </Array>
          </mxGeometry>
        </mxCell>
        <mxCell id="C0KYWf5MFjcVJt7XxlhM-66" style="edgeStyle=orthogonalEdgeStyle;rounded=0;orthogonalLoop=1;jettySize=auto;html=1;noEdgeStyle=1;orthogonal=1;" edge="1" parent="WIyWlLk6GJQsqaUBKTNV-1" source="C0KYWf5MFjcVJt7XxlhM-8" target="C0KYWf5MFjcVJt7XxlhM-23">
          <mxGeometry relative="1" as="geometry">
            <Array as="points">
              <mxPoint x="1747.5000000000002" y="74" />
              <mxPoint x="1760" y="110" />
              <mxPoint x="1760" y="270" />
              <mxPoint x="1870.446428571429" y="304" />
            </Array>
          </mxGeometry>
        </mxCell>
        <mxCell id="C0KYWf5MFjcVJt7XxlhM-67" style="edgeStyle=orthogonalEdgeStyle;rounded=0;orthogonalLoop=1;jettySize=auto;html=1;noEdgeStyle=1;orthogonal=1;" edge="1" parent="WIyWlLk6GJQsqaUBKTNV-1" source="C0KYWf5MFjcVJt7XxlhM-8" target="C0KYWf5MFjcVJt7XxlhM-28">
          <mxGeometry relative="1" as="geometry">
            <Array as="points">
              <mxPoint x="1660.8333333333333" y="72" />
              <mxPoint x="1172.5" y="148" />
            </Array>
          </mxGeometry>
        </mxCell>
        <mxCell id="C0KYWf5MFjcVJt7XxlhM-68" style="edgeStyle=orthogonalEdgeStyle;rounded=0;orthogonalLoop=1;jettySize=auto;html=1;noEdgeStyle=1;orthogonal=1;" edge="1" parent="WIyWlLk6GJQsqaUBKTNV-1" source="C0KYWf5MFjcVJt7XxlhM-8" target="C0KYWf5MFjcVJt7XxlhM-35">
          <mxGeometry relative="1" as="geometry">
            <Array as="points">
              <mxPoint x="1769.166666666667" y="72" />
              <mxPoint x="1790" y="110" />
              <mxPoint x="1790" y="270" />
              <mxPoint x="1981.875" y="270" />
              <mxPoint x="1981.875" y="430" />
              <mxPoint x="1446.625" y="468" />
            </Array>
          </mxGeometry>
        </mxCell>
        <mxCell id="C0KYWf5MFjcVJt7XxlhM-8" value="WydotTimRcController" style="rounded=0;whiteSpace=wrap;html=1;fillColor=#D4E1F5;container=0;" vertex="1" parent="WIyWlLk6GJQsqaUBKTNV-1">
          <mxGeometry x="1645" y="-80" width="140" height="60" as="geometry" />
        </mxCell>
        <mxCell id="C0KYWf5MFjcVJt7XxlhM-69" style="edgeStyle=orthogonalEdgeStyle;rounded=0;orthogonalLoop=1;jettySize=auto;html=1;noEdgeStyle=1;orthogonal=1;fillColor=#fff2cc;strokeColor=#d6b656;" edge="1" parent="WIyWlLk6GJQsqaUBKTNV-1" source="C0KYWf5MFjcVJt7XxlhM-9" target="avPxuaekG5Cl0MjWcBpi-0">
          <mxGeometry relative="1" as="geometry">
            <Array as="points">
              <mxPoint x="1901.25" y="74" />
              <mxPoint x="1850" y="110" />
              <mxPoint x="1850" y="270" />
              <mxPoint x="1710.7638888888882" y="304" />
            </Array>
          </mxGeometry>
        </mxCell>
        <mxCell id="C0KYWf5MFjcVJt7XxlhM-70" style="edgeStyle=orthogonalEdgeStyle;rounded=0;orthogonalLoop=1;jettySize=auto;html=1;noEdgeStyle=1;orthogonal=1;" edge="1" parent="WIyWlLk6GJQsqaUBKTNV-1" source="C0KYWf5MFjcVJt7XxlhM-9" target="C0KYWf5MFjcVJt7XxlhM-19">
          <mxGeometry relative="1" as="geometry">
            <Array as="points">
              <mxPoint x="1868.75" y="74" />
              <mxPoint x="1820" y="110" />
              <mxPoint x="1820" y="270" />
              <mxPoint x="1522.5" y="306" />
            </Array>
          </mxGeometry>
        </mxCell>
        <mxCell id="C0KYWf5MFjcVJt7XxlhM-71" style="edgeStyle=orthogonalEdgeStyle;rounded=0;orthogonalLoop=1;jettySize=auto;html=1;noEdgeStyle=1;orthogonal=1;" edge="1" parent="WIyWlLk6GJQsqaUBKTNV-1" source="C0KYWf5MFjcVJt7XxlhM-9" target="C0KYWf5MFjcVJt7XxlhM-23">
          <mxGeometry relative="1" as="geometry">
            <Array as="points">
              <mxPoint x="1933.75" y="72" />
              <mxPoint x="1880" y="110" />
              <mxPoint x="1880" y="270" />
              <mxPoint x="1889.0178571428576" y="306" />
            </Array>
          </mxGeometry>
        </mxCell>
        <mxCell id="C0KYWf5MFjcVJt7XxlhM-9" value="WydotTimRwController" style="rounded=0;whiteSpace=wrap;html=1;fillColor=#D4E1F5;container=0;" vertex="1" parent="WIyWlLk6GJQsqaUBKTNV-1">
          <mxGeometry x="1815" y="-80" width="140" height="60" as="geometry" />
        </mxCell>
        <mxCell id="C0KYWf5MFjcVJt7XxlhM-72" style="edgeStyle=orthogonalEdgeStyle;rounded=0;orthogonalLoop=1;jettySize=auto;html=1;noEdgeStyle=1;orthogonal=1;fillColor=#fff2cc;strokeColor=#d6b656;" edge="1" parent="WIyWlLk6GJQsqaUBKTNV-1" source="C0KYWf5MFjcVJt7XxlhM-10" target="avPxuaekG5Cl0MjWcBpi-0">
          <mxGeometry relative="1" as="geometry">
            <Array as="points">
              <mxPoint x="2044.1666666666667" y="76" />
              <mxPoint x="1940" y="110" />
              <mxPoint x="1940" y="270" />
              <mxPoint x="1725.2083333333326" y="306" />
            </Array>
          </mxGeometry>
        </mxCell>
        <mxCell id="C0KYWf5MFjcVJt7XxlhM-73" style="edgeStyle=orthogonalEdgeStyle;rounded=0;orthogonalLoop=1;jettySize=auto;html=1;noEdgeStyle=1;orthogonal=1;" edge="1" parent="WIyWlLk6GJQsqaUBKTNV-1" source="C0KYWf5MFjcVJt7XxlhM-10" target="C0KYWf5MFjcVJt7XxlhM-19">
          <mxGeometry relative="1" as="geometry">
            <Array as="points">
              <mxPoint x="2022.5" y="74" />
              <mxPoint x="1910" y="110" />
              <mxPoint x="1910" y="270" />
              <mxPoint x="1538.75" y="308" />
            </Array>
          </mxGeometry>
        </mxCell>
        <mxCell id="C0KYWf5MFjcVJt7XxlhM-74" style="edgeStyle=orthogonalEdgeStyle;rounded=0;orthogonalLoop=1;jettySize=auto;html=1;noEdgeStyle=1;orthogonal=1;" edge="1" parent="WIyWlLk6GJQsqaUBKTNV-1" source="C0KYWf5MFjcVJt7XxlhM-10" target="C0KYWf5MFjcVJt7XxlhM-23">
          <mxGeometry relative="1" as="geometry">
            <Array as="points">
              <mxPoint x="2065.8333333333335" y="76" />
              <mxPoint x="1970" y="110" />
              <mxPoint x="1970" y="270" />
              <mxPoint x="1907.5892857142862" y="308" />
            </Array>
          </mxGeometry>
        </mxCell>
        <mxCell id="C0KYWf5MFjcVJt7XxlhM-75" style="edgeStyle=orthogonalEdgeStyle;rounded=0;orthogonalLoop=1;jettySize=auto;html=1;noEdgeStyle=1;orthogonal=1;" edge="1" parent="WIyWlLk6GJQsqaUBKTNV-1" source="C0KYWf5MFjcVJt7XxlhM-10" target="C0KYWf5MFjcVJt7XxlhM-29">
          <mxGeometry relative="1" as="geometry">
            <Array as="points">
              <mxPoint x="2087.5" y="74" />
              <mxPoint x="2070" y="148" />
            </Array>
          </mxGeometry>
        </mxCell>
        <mxCell id="C0KYWf5MFjcVJt7XxlhM-76" style="edgeStyle=orthogonalEdgeStyle;rounded=0;orthogonalLoop=1;jettySize=auto;html=1;noEdgeStyle=1;orthogonal=1;" edge="1" parent="WIyWlLk6GJQsqaUBKTNV-1" source="C0KYWf5MFjcVJt7XxlhM-10" target="C0KYWf5MFjcVJt7XxlhM-36">
          <mxGeometry relative="1" as="geometry">
            <Array as="points">
              <mxPoint x="2109.1666666666665" y="72" />
              <mxPoint x="2170" y="110" />
              <mxPoint x="2170" y="270" />
              <mxPoint x="2011.875" y="270" />
              <mxPoint x="2011.875" y="430" />
              <mxPoint x="1781.2083333333333" y="468" />
            </Array>
          </mxGeometry>
        </mxCell>
        <mxCell id="C0KYWf5MFjcVJt7XxlhM-10" value="WydotTimVslController" style="rounded=0;whiteSpace=wrap;html=1;fillColor=#D4E1F5;container=0;" vertex="1" parent="WIyWlLk6GJQsqaUBKTNV-1">
          <mxGeometry x="1985" y="-80" width="140" height="60" as="geometry" />
        </mxCell>
        <mxCell id="C0KYWf5MFjcVJt7XxlhM-77" style="edgeStyle=orthogonalEdgeStyle;rounded=0;orthogonalLoop=1;jettySize=auto;html=1;noEdgeStyle=1;orthogonal=1;" edge="1" parent="WIyWlLk6GJQsqaUBKTNV-1" source="C0KYWf5MFjcVJt7XxlhM-11" target="C0KYWf5MFjcVJt7XxlhM-20">
          <mxGeometry relative="1" as="geometry">
            <Array as="points">
              <mxPoint x="2325.625" y="232" />
              <mxPoint x="2083.125" y="308" />
            </Array>
          </mxGeometry>
        </mxCell>
        <mxCell id="C0KYWf5MFjcVJt7XxlhM-11" value="BufferedRequestWrapperFactory" style="rounded=0;whiteSpace=wrap;html=1;fillColor=#D4E1F5;container=0;" vertex="1" parent="WIyWlLk6GJQsqaUBKTNV-1">
          <mxGeometry x="2230" y="160" width="191.25" height="60" as="geometry" />
        </mxCell>
        <mxCell id="C0KYWf5MFjcVJt7XxlhM-78" style="edgeStyle=orthogonalEdgeStyle;rounded=0;orthogonalLoop=1;jettySize=auto;html=1;noEdgeStyle=1;orthogonal=1;" edge="1" parent="WIyWlLk6GJQsqaUBKTNV-1" source="C0KYWf5MFjcVJt7XxlhM-12" target="C0KYWf5MFjcVJt7XxlhM-21">
          <mxGeometry relative="1" as="geometry">
            <Array as="points">
              <mxPoint x="2582.5" y="232" />
              <mxPoint x="2607.980967078189" y="308" />
            </Array>
          </mxGeometry>
        </mxCell>
        <mxCell id="C0KYWf5MFjcVJt7XxlhM-12" value="BufferedResponseWrapperFactory" style="rounded=0;whiteSpace=wrap;html=1;fillColor=#D4E1F5;container=0;" vertex="1" parent="WIyWlLk6GJQsqaUBKTNV-1">
          <mxGeometry x="2481.25" y="160" width="202.5" height="60" as="geometry" />
        </mxCell>
        <mxCell id="C0KYWf5MFjcVJt7XxlhM-79" style="edgeStyle=orthogonalEdgeStyle;rounded=0;orthogonalLoop=1;jettySize=auto;html=1;noEdgeStyle=1;orthogonal=1;fillColor=#fff2cc;strokeColor=#d6b656;" edge="1" parent="WIyWlLk6GJQsqaUBKTNV-1" source="C0KYWf5MFjcVJt7XxlhM-18" target="avPxuaekG5Cl0MjWcBpi-0">
          <mxGeometry relative="1" as="geometry">
            <Array as="points">
              <mxPoint x="2399.25" y="72" />
              <mxPoint x="2200" y="110" />
              <mxPoint x="2200" y="270" />
              <mxPoint x="1739.652777777777" y="308" />
            </Array>
          </mxGeometry>
        </mxCell>
        <mxCell id="C0KYWf5MFjcVJt7XxlhM-80" style="edgeStyle=orthogonalEdgeStyle;rounded=0;orthogonalLoop=1;jettySize=auto;html=1;noEdgeStyle=1;orthogonal=1;" edge="1" parent="WIyWlLk6GJQsqaUBKTNV-1" source="C0KYWf5MFjcVJt7XxlhM-18" target="C0KYWf5MFjcVJt7XxlhM-20">
          <mxGeometry relative="1" as="geometry">
            <Array as="points">
              <mxPoint x="2451.25" y="76" />
              <mxPoint x="2451.25" y="110" />
              <mxPoint x="2451.25" y="270" />
              <mxPoint x="2155.625" y="308" />
            </Array>
          </mxGeometry>
        </mxCell>
        <mxCell id="C0KYWf5MFjcVJt7XxlhM-81" style="edgeStyle=orthogonalEdgeStyle;rounded=0;orthogonalLoop=1;jettySize=auto;html=1;noEdgeStyle=1;orthogonal=1;" edge="1" parent="WIyWlLk6GJQsqaUBKTNV-1" source="C0KYWf5MFjcVJt7XxlhM-18" target="C0KYWf5MFjcVJt7XxlhM-21">
          <mxGeometry relative="1" as="geometry">
            <Array as="points">
              <mxPoint x="2503.25" y="72" />
              <mxPoint x="2713.75" y="110" />
              <mxPoint x="2713.75" y="270" />
              <mxPoint x="2685.480967078189" y="308" />
            </Array>
          </mxGeometry>
        </mxCell>
        <mxCell id="C0KYWf5MFjcVJt7XxlhM-98" style="edgeStyle=orthogonalEdgeStyle;rounded=0;orthogonalLoop=1;jettySize=auto;html=1;noEdgeStyle=1;orthogonal=1;" edge="1" parent="WIyWlLk6GJQsqaUBKTNV-1" source="C0KYWf5MFjcVJt7XxlhM-18" target="C0KYWf5MFjcVJt7XxlhM-11">
          <mxGeometry relative="1" as="geometry">
            <Array as="points">
              <mxPoint x="2425.25" y="74" />
              <mxPoint x="2325.625" y="148" />
            </Array>
          </mxGeometry>
        </mxCell>
        <mxCell id="C0KYWf5MFjcVJt7XxlhM-99" style="edgeStyle=orthogonalEdgeStyle;rounded=0;orthogonalLoop=1;jettySize=auto;html=1;noEdgeStyle=1;orthogonal=1;" edge="1" parent="WIyWlLk6GJQsqaUBKTNV-1" source="C0KYWf5MFjcVJt7XxlhM-18" target="C0KYWf5MFjcVJt7XxlhM-12">
          <mxGeometry relative="1" as="geometry">
            <Array as="points">
              <mxPoint x="2477.25" y="74" />
              <mxPoint x="2582.5" y="148" />
            </Array>
          </mxGeometry>
        </mxCell>
        <mxCell id="C0KYWf5MFjcVJt7XxlhM-18" value="HttpLoggingFilter" style="rounded=0;whiteSpace=wrap;html=1;fillColor=#D4E1F5;container=0;" vertex="1" parent="WIyWlLk6GJQsqaUBKTNV-1">
          <mxGeometry x="2381.25" width="140" height="60" as="geometry" />
        </mxCell>
        <mxCell id="C0KYWf5MFjcVJt7XxlhM-82" style="edgeStyle=orthogonalEdgeStyle;rounded=0;orthogonalLoop=1;jettySize=auto;html=1;noEdgeStyle=1;orthogonal=1;" edge="1" parent="WIyWlLk6GJQsqaUBKTNV-1" source="C0KYWf5MFjcVJt7XxlhM-19" target="C0KYWf5MFjcVJt7XxlhM-32">
          <mxGeometry relative="1" as="geometry">
            <Array as="points">
              <mxPoint x="1433.125" y="392" />
              <mxPoint x="1271.2083333333333" y="468" />
            </Array>
          </mxGeometry>
        </mxCell>
        <mxCell id="C0KYWf5MFjcVJt7XxlhM-83" style="edgeStyle=orthogonalEdgeStyle;rounded=0;orthogonalLoop=1;jettySize=auto;html=1;noEdgeStyle=1;orthogonal=1;" edge="1" parent="WIyWlLk6GJQsqaUBKTNV-1" source="C0KYWf5MFjcVJt7XxlhM-19" target="C0KYWf5MFjcVJt7XxlhM-34">
          <mxGeometry relative="1" as="geometry">
            <Array as="points">
              <mxPoint x="1498.125" y="394" />
              <mxPoint x="1567.875" y="466" />
            </Array>
          </mxGeometry>
        </mxCell>
        <mxCell id="C0KYWf5MFjcVJt7XxlhM-84" style="edgeStyle=orthogonalEdgeStyle;rounded=0;orthogonalLoop=1;jettySize=auto;html=1;noEdgeStyle=1;orthogonal=1;" edge="1" parent="WIyWlLk6GJQsqaUBKTNV-1" source="C0KYWf5MFjcVJt7XxlhM-19" target="C0KYWf5MFjcVJt7XxlhM-35">
          <mxGeometry relative="1" as="geometry">
            <Array as="points">
              <mxPoint x="1465.625" y="394" />
              <mxPoint x="1414.125" y="466" />
            </Array>
          </mxGeometry>
        </mxCell>
        <mxCell id="C0KYWf5MFjcVJt7XxlhM-85" style="edgeStyle=orthogonalEdgeStyle;rounded=0;orthogonalLoop=1;jettySize=auto;html=1;noEdgeStyle=1;orthogonal=1;" edge="1" parent="WIyWlLk6GJQsqaUBKTNV-1" source="C0KYWf5MFjcVJt7XxlhM-19" target="C0KYWf5MFjcVJt7XxlhM-36">
          <mxGeometry relative="1" as="geometry">
            <Array as="points">
              <mxPoint x="1530.625" y="392" />
              <mxPoint x="1694.5416666666667" y="468" />
            </Array>
          </mxGeometry>
        </mxCell>
        <mxCell id="C0KYWf5MFjcVJt7XxlhM-19" value="SetItisCodes" style="rounded=0;whiteSpace=wrap;html=1;fillColor=#D4E1F5;container=0;" vertex="1" parent="WIyWlLk6GJQsqaUBKTNV-1">
          <mxGeometry x="1411.875" y="320" width="140" height="60" as="geometry" />
        </mxCell>
        <mxCell id="C0KYWf5MFjcVJt7XxlhM-86" style="edgeStyle=orthogonalEdgeStyle;rounded=0;orthogonalLoop=1;jettySize=auto;html=1;noEdgeStyle=1;orthogonal=1;" edge="1" parent="WIyWlLk6GJQsqaUBKTNV-1" source="C0KYWf5MFjcVJt7XxlhM-20" target="C0KYWf5MFjcVJt7XxlhM-22">
          <mxGeometry relative="1" as="geometry">
            <Array as="points">
              <mxPoint x="2119.375" y="392" />
              <mxPoint x="1911.875" y="468" />
            </Array>
          </mxGeometry>
        </mxCell>
        <mxCell id="C0KYWf5MFjcVJt7XxlhM-20" value="BufferedRequestWrapper" style="rounded=0;whiteSpace=wrap;html=1;fillColor=#D4E1F5;container=0;" vertex="1" parent="WIyWlLk6GJQsqaUBKTNV-1">
          <mxGeometry x="2041.875" y="320" width="155" height="60" as="geometry" />
        </mxCell>
        <mxCell id="C0KYWf5MFjcVJt7XxlhM-87" style="edgeStyle=orthogonalEdgeStyle;rounded=0;orthogonalLoop=1;jettySize=auto;html=1;noEdgeStyle=1;orthogonal=1;" edge="1" parent="WIyWlLk6GJQsqaUBKTNV-1" source="C0KYWf5MFjcVJt7XxlhM-21" target="C0KYWf5MFjcVJt7XxlhM-25">
          <mxGeometry relative="1" as="geometry">
            <Array as="points">
              <mxPoint x="2646.730967078189" y="392" />
              <mxPoint x="2646.730967078189" y="468" />
            </Array>
          </mxGeometry>
        </mxCell>
        <mxCell id="C0KYWf5MFjcVJt7XxlhM-21" value="BufferedResponseWrapper" style="rounded=0;whiteSpace=wrap;html=1;fillColor=#D4E1F5;container=0;" vertex="1" parent="WIyWlLk6GJQsqaUBKTNV-1">
          <mxGeometry x="2564.230967078189" y="320" width="165" height="60" as="geometry" />
        </mxCell>
        <mxCell id="C0KYWf5MFjcVJt7XxlhM-22" value="BufferedServletInputStream" style="rounded=0;whiteSpace=wrap;html=1;fillColor=#D4E1F5;container=0;" vertex="1" parent="WIyWlLk6GJQsqaUBKTNV-1">
          <mxGeometry x="1831.8700000000001" y="480" width="168.13" height="60" as="geometry" />
        </mxCell>
        <mxCell id="C0KYWf5MFjcVJt7XxlhM-23" value="ControllerResult" style="rounded=0;whiteSpace=wrap;html=1;fillColor=#D4E1F5;container=0;" vertex="1" parent="WIyWlLk6GJQsqaUBKTNV-1">
          <mxGeometry x="1781.875" y="320" width="140" height="60" as="geometry" />
        </mxCell>
        <mxCell id="C0KYWf5MFjcVJt7XxlhM-24" value="IdGenerator&lt;span style=&quot;color: rgba(0, 0, 0, 0); font-family: monospace; font-size: 0px; text-align: start; text-wrap: nowrap;&quot;&gt;%3CmxGraphModel%3E%3Croot%3E%3CmxCell%20id%3D%220%22%2F%3E%3CmxCell%20id%3D%221%22%20parent%3D%220%22%2F%3E%3CmxCell%20id%3D%222%22%20value%3D%22ControllerResult%22%20style%3D%22rounded%3D0%3BwhiteSpace%3Dwrap%3Bhtml%3D1%3BfillColor%3D%23D4E1F5%3Bcontainer%3D0%3B%22%20vertex%3D%221%22%20parent%3D%221%22%3E%3CmxGeometry%20x%3D%22400%22%20y%3D%22680%22%20width%3D%22140%22%20height%3D%2260%22%20as%3D%22geometry%22%2F%3E%3C%2FmxCell%3E%3C%2Froot%3E%3C%2FmxGraphModel%3E&lt;/span&gt;" style="rounded=0;whiteSpace=wrap;html=1;fillColor=#D4E1F5;container=0;" vertex="1" parent="WIyWlLk6GJQsqaUBKTNV-1">
          <mxGeometry x="981.875" y="320" width="140" height="60" as="geometry" />
        </mxCell>
        <mxCell id="C0KYWf5MFjcVJt7XxlhM-25" value="TeeServletOutputStream" style="rounded=0;whiteSpace=wrap;html=1;fillColor=#D4E1F5;container=0;" vertex="1" parent="WIyWlLk6GJQsqaUBKTNV-1">
          <mxGeometry x="2576.730967078189" y="480" width="140" height="60" as="geometry" />
        </mxCell>
        <mxCell id="C0KYWf5MFjcVJt7XxlhM-26" value="TimIncidentList" style="rounded=0;whiteSpace=wrap;html=1;fillColor=#D4E1F5;container=0;" vertex="1" parent="WIyWlLk6GJQsqaUBKTNV-1">
          <mxGeometry x="870" y="160" width="140" height="60" as="geometry" />
        </mxCell>
        <mxCell id="C0KYWf5MFjcVJt7XxlhM-27" value="TimParkingList" style="rounded=0;whiteSpace=wrap;html=1;fillColor=#D4E1F5;container=0;" vertex="1" parent="WIyWlLk6GJQsqaUBKTNV-1">
          <mxGeometry x="1500" y="160" width="140" height="60" as="geometry" />
        </mxCell>
        <mxCell id="C0KYWf5MFjcVJt7XxlhM-28" value="TimRcList" style="rounded=0;whiteSpace=wrap;html=1;fillColor=#D4E1F5;container=0;" vertex="1" parent="WIyWlLk6GJQsqaUBKTNV-1">
          <mxGeometry x="1070" y="160" width="140" height="60" as="geometry" />
        </mxCell>
        <mxCell id="C0KYWf5MFjcVJt7XxlhM-29" value="TimVslList" style="rounded=0;whiteSpace=wrap;html=1;fillColor=#D4E1F5;container=0;" vertex="1" parent="WIyWlLk6GJQsqaUBKTNV-1">
          <mxGeometry x="2000" y="160" width="140" height="60" as="geometry" />
        </mxCell>
        <mxCell id="C0KYWf5MFjcVJt7XxlhM-30" value="WydotDataFrame" style="rounded=0;whiteSpace=wrap;html=1;fillColor=#D4E1F5;container=0;" vertex="1" parent="WIyWlLk6GJQsqaUBKTNV-1">
          <mxGeometry x="2210" y="410" width="140" height="60" as="geometry" />
        </mxCell>
        <mxCell id="C0KYWf5MFjcVJt7XxlhM-31" value="WydotTimCc" style="rounded=0;whiteSpace=wrap;html=1;fillColor=#D4E1F5;container=0;" vertex="1" parent="WIyWlLk6GJQsqaUBKTNV-1">
          <mxGeometry x="1151.875" y="320" width="140" height="60" as="geometry" />
        </mxCell>
        <mxCell id="C0KYWf5MFjcVJt7XxlhM-32" value="WydotTimIncident" style="rounded=0;whiteSpace=wrap;html=1;fillColor=#D4E1F5;container=0;" vertex="1" parent="WIyWlLk6GJQsqaUBKTNV-1">
          <mxGeometry x="1157.875" y="480" width="140" height="60" as="geometry" />
        </mxCell>
        <mxCell id="C0KYWf5MFjcVJt7XxlhM-33" value="WydotTimList" style="rounded=0;whiteSpace=wrap;html=1;fillColor=#D4E1F5;container=0;" vertex="1" parent="WIyWlLk6GJQsqaUBKTNV-1">
          <mxGeometry x="2360" y="410" width="140" height="60" as="geometry" />
        </mxCell>
        <mxCell id="C0KYWf5MFjcVJt7XxlhM-34" value="WydotTimParking" style="rounded=0;whiteSpace=wrap;html=1;fillColor=#D4E1F5;container=0;" vertex="1" parent="WIyWlLk6GJQsqaUBKTNV-1">
          <mxGeometry x="1497.875" y="480" width="140" height="60" as="geometry" />
        </mxCell>
        <mxCell id="C0KYWf5MFjcVJt7XxlhM-35" value="WydotTimRc" style="rounded=0;whiteSpace=wrap;html=1;fillColor=#D4E1F5;container=0;" vertex="1" parent="WIyWlLk6GJQsqaUBKTNV-1">
          <mxGeometry x="1327.875" y="480" width="140" height="60" as="geometry" />
        </mxCell>
        <mxCell id="C0KYWf5MFjcVJt7XxlhM-36" value="WydotTimVsl" style="rounded=0;whiteSpace=wrap;html=1;fillColor=#D4E1F5;container=0;" vertex="1" parent="WIyWlLk6GJQsqaUBKTNV-1">
          <mxGeometry x="1667.875" y="480" width="140" height="60" as="geometry" />
        </mxCell>
        <mxCell id="C0KYWf5MFjcVJt7XxlhM-37" value="ApplicationConfig" style="rounded=0;whiteSpace=wrap;html=1;fillColor=#D4E1F5;container=0;" vertex="1" parent="WIyWlLk6GJQsqaUBKTNV-1">
          <mxGeometry x="2360.000967078189" y="340" width="140" height="60" as="geometry" />
        </mxCell>
        <mxCell id="C0KYWf5MFjcVJt7XxlhM-58" style="edgeStyle=orthogonalEdgeStyle;rounded=0;orthogonalLoop=1;jettySize=auto;html=1;noEdgeStyle=1;orthogonal=1;" edge="1" parent="WIyWlLk6GJQsqaUBKTNV-1" source="C0KYWf5MFjcVJt7XxlhM-5" target="C0KYWf5MFjcVJt7XxlhM-32">
          <mxGeometry relative="1" as="geometry">
            <Array as="points">
              <mxPoint x="1025.9375" y="74" />
              <mxPoint x="1040" y="110" />
              <mxPoint x="1040" y="270" />
              <mxPoint x="951.875" y="270" />
              <mxPoint x="951.875" y="430" />
              <mxPoint x="1184.5416666666667" y="468" />
            </Array>
          </mxGeometry>
        </mxCell>
      </root>
    </mxGraphModel>
  </diagram>
</mxfile>
